<?xml version="1.0" standalone="no"?>
<!DOCTYPE svg PUBLIC "-//W3C//DTD SVG 20010904//EN"
 "http://www.w3.org/TR/2001/REC-SVG-20010904/DTD/svg10.dtd">
<svg version="1.0" xmlns="http://www.w3.org/2000/svg"
 width="80.000000pt" height="80.000000pt" viewBox="0 0 256.000000 256.000000"
 preserveAspectRatio="xMidYMid meet">

<g transform="translate(0.000000,256.000000) scale(0.100000,-0.100000)"
fill="#715693" stroke="none">
<path d="M392 2539 c-28 -14 -51 -36 -67 -64 l-25 -42 0 -684 0 -684 23 -40
c13 -22 40 -49 62 -62 39 -22 46 -23 363 -23 l322 0 0 -85 0 -85 -122 0 c-98
0 -131 -4 -163 -19 -95 -43 -104 -77 -104 -371 -1 -208 2 -240 18 -275 21 -46
54 -79 94 -94 39 -15 935 -15 974 0 40 15 73 48 94 94 16 35 19 67 18 275 0
294 -9 328 -104 371 -32 15 -65 19 -162 19 l-123 0 0 85 0 85 323 0 c316 0
323 1 362 23 22 13 49 40 62 62 l23 40 0 681 0 681 -23 43 c-16 30 -37 51 -67
67 l-43 23 -846 0 c-841 0 -846 0 -889 -21z m1759 -95 c21 -23 24 -36 27 -125
l4 -99 -902 0 -902 0 4 99 c3 89 6 102 27 125 l24 26 847 0 847 0 24 -26z m29
-824 c0 -576 1 -570 -67 -590 -25 -7 -136 -10 -328 -8 l-290 3 -3 193 -2 192
40 0 c30 0 47 7 65 25 46 45 37 65 -117 273 -152 203 -175 224 -225 203 -41
-18 -313 -385 -313 -423 0 -44 40 -78 90 -78 l40 0 -2 -192 -3 -193 -290 -3
c-192 -2 -303 1 -328 8 -68 20 -67 14 -67 590 l0 510 900 0 900 0 0 -510z
m-771 38 l122 -163 -48 -3 c-26 -2 -53 -8 -60 -14 -10 -8 -13 -89 -13 -359 l0
-349 -130 0 -130 0 0 349 c0 270 -3 351 -13 359 -7 6 -34 12 -60 14 l-48 3
122 163 c66 89 125 162 129 162 4 0 63 -73 129 -162z m356 -1003 l25 -24 0
-244 c0 -232 -1 -246 -21 -271 l-20 -26 -469 0 -469 0 -20 26 c-20 25 -21 39
-21 271 l0 244 25 24 24 25 461 0 461 0 24 -25z"/>
<path d="M482 2378 c-32 -32 -3 -78 50 -78 29 0 68 26 68 45 0 38 -88 63 -118
33z"/>
<path d="M696 2374 c-22 -21 -20 -40 6 -58 58 -41 144 14 96 62 -17 17 -84 15
-102 -4z"/>
<path d="M910 2376 c-19 -24 -8 -60 23 -70 38 -14 81 3 85 32 5 34 -15 52 -58
52 -21 0 -43 -7 -50 -14z"/>
<path d="M1853 2383 c-21 -8 -16 -61 6 -73 11 -5 60 -10 110 -10 94 0 121 11
121 49 0 34 -21 41 -125 40 -55 0 -106 -3 -112 -6z"/>
<path d="M1293 538 c-6 -7 -31 -75 -56 -151 -45 -137 -46 -138 -26 -158 41
-41 58 -19 113 148 33 101 42 142 35 155 -11 21 -52 24 -66 6z"/>
<path d="M973 459 c-98 -67 -98 -81 2 -149 76 -51 102 -59 123 -38 23 23 12
47 -34 79 -25 17 -42 34 -37 38 4 4 25 19 46 35 38 28 46 53 25 74 -21 21 -52
12 -125 -39z"/>
<path d="M1462 498 c-21 -21 -13 -46 26 -74 20 -16 41 -31 45 -35 5 -4 -12
-21 -37 -38 -46 -32 -57 -56 -34 -79 21 -21 47 -13 123 38 59 40 75 56 75 75
0 19 -16 35 -75 75 -76 51 -102 59 -123 38z"/>
</g>
</svg>
