<?xml version="1.0" standalone="no"?>
<!DOCTYPE svg PUBLIC "-//W3C//DTD SVG 20010904//EN"
 "http://www.w3.org/TR/2001/REC-SVG-20010904/DTD/svg10.dtd">
<svg version="1.0" xmlns="http://www.w3.org/2000/svg"
 width="80.000000pt" height="80.000000pt" viewBox="0 0 256.000000 256.000000"
 preserveAspectRatio="xMidYMid meet">

<g transform="translate(0.000000,256.000000) scale(0.100000,-0.100000)"
fill="#715693" stroke="none">
<path d="M142 2474 c-31 -15 -64 -42 -82 -67 -62 -84 -61 -68 -58 -908 l3
-764 24 -45 c30 -58 67 -97 113 -121 33 -17 60 -19 226 -19 199 0 212 3 212
46 0 47 -30 54 -217 54 l-172 0 -35 35 c-19 19 -40 52 -45 72 -7 24 -11 211
-11 506 l0 467 1090 0 1090 0 -2 -252 -3 -253 -30 -3 c-16 -2 -41 -12 -56 -23
-26 -19 -28 -19 -73 2 -33 14 -46 26 -46 40 0 36 -31 80 -65 95 -44 18 -136
18 -179 0 -41 -17 -66 -51 -66 -89 0 -23 -7 -31 -45 -47 -45 -19 -46 -19 -78
0 -17 11 -49 20 -70 20 -32 0 -47 -8 -94 -52 -67 -64 -86 -102 -73 -148 5 -18
16 -40 25 -50 14 -16 14 -21 -4 -64 -15 -34 -26 -46 -41 -46 -37 0 -81 -30
-96 -65 -8 -19 -14 -59 -14 -90 l0 -55 -148 0 c-160 0 -192 -9 -192 -54 0 -44
12 -46 247 -46 l224 0 19 -46 c20 -46 20 -46 0 -74 -29 -41 -26 -98 8 -146 67
-92 149 -122 211 -77 l30 23 45 -21 c39 -17 46 -24 46 -48 0 -35 30 -74 69
-91 19 -7 60 -11 106 -8 65 3 78 7 101 30 15 14 30 43 33 63 5 33 11 40 51 55
43 17 45 17 71 -3 42 -30 102 -26 146 10 96 77 122 149 77 210 -21 28 -21 30
-4 73 15 40 22 46 55 51 20 3 49 18 63 33 23 23 27 36 30 101 3 46 -1 87 -8
106 -17 39 -56 69 -91 69 -24 0 -31 7 -48 46 l-21 45 23 30 c31 42 29 97 -5
141 l-27 36 -3 568 -3 569 -23 50 c-29 62 -75 112 -127 136 -38 18 -87 19
-1036 19 l-995 0 -52 -26z m2058 -97 c19 -12 43 -38 54 -57 20 -33 21 -51 21
-260 l0 -225 -1087 -3 -1088 -2 0 215 c0 172 3 223 15 253 18 42 51 80 80 92
11 5 459 9 996 9 l976 1 33 -23z m-230 -1179 c3 -26 8 -50 12 -53 3 -3 36 -17
74 -31 38 -13 73 -29 78 -34 18 -18 64 -10 96 16 l31 27 40 -39 39 -38 -30
-31 c-33 -34 -38 -69 -15 -99 8 -10 22 -42 31 -70 23 -71 39 -86 91 -86 l43 0
0 -55 0 -55 -38 0 c-50 0 -76 -20 -91 -72 -7 -24 -22 -60 -32 -80 -25 -49 -24
-70 6 -98 32 -30 32 -37 -7 -77 -38 -40 -47 -41 -78 -8 -28 30 -49 31 -98 6
-20 -10 -56 -25 -80 -32 -52 -15 -72 -41 -72 -91 l0 -38 -55 0 -55 0 0 43 c0
52 -15 68 -86 91 -28 9 -60 23 -70 31 -29 22 -68 18 -94 -10 -30 -32 -37 -32
-77 7 -40 38 -40 44 -8 74 31 29 31 56 0 119 -13 28 -25 58 -25 68 0 33 -45
67 -90 67 l-40 0 0 55 0 55 44 0 c49 0 72 16 82 58 4 15 17 48 30 74 31 60 30
89 -1 118 -33 31 -32 40 10 80 l35 34 22 -21 c48 -43 60 -44 127 -13 35 17 69
30 77 30 31 0 64 47 64 90 l0 41 53 -3 52 -3 5 -47z"/>
<path d="M384 2261 c-55 -34 -79 -78 -79 -148 0 -69 17 -101 75 -140 40 -28
116 -31 167 -6 115 54 117 235 2 293 -50 26 -124 26 -165 1z m135 -107 c26
-33 26 -45 0 -78 -38 -48 -119 -22 -119 39 0 61 81 87 119 39z"/>
<path d="M819 2257 c-107 -72 -107 -212 0 -284 64 -44 175 -23 221 40 24 33
38 98 29 136 -25 110 -160 169 -250 108z m133 -94 c22 -20 23 -70 1 -95 -20
-22 -70 -23 -95 -1 -10 9 -18 29 -18 45 0 57 70 89 112 51z"/>
<path d="M1422 2263 c-114 -56 -119 -226 -10 -293 31 -19 51 -20 306 -20 232
0 279 2 308 16 65 31 102 115 83 188 -12 49 -34 77 -80 105 -32 20 -48 21
-304 21 -229 0 -275 -3 -303 -17z m570 -100 c22 -20 23 -70 1 -95 -15 -17 -37
-18 -270 -18 -240 0 -254 1 -273 20 -11 11 -20 31 -20 45 0 14 9 34 20 45 19
19 33 20 272 20 220 0 254 -2 270 -17z"/>
<path d="M1801 989 c-122 -48 -197 -170 -189 -304 8 -116 65 -202 170 -255 50
-24 74 -30 128 -30 97 0 155 23 221 89 66 66 89 124 89 221 0 114 -65 216
-173 272 -62 32 -175 35 -246 7z m232 -116 c136 -95 106 -312 -49 -363 -58
-19 -138 -8 -186 26 -88 62 -111 167 -60 265 22 43 38 59 82 82 48 25 63 28
114 24 43 -4 70 -13 99 -34z"/>
<path d="M778 1433 c-8 -10 -39 -118 -68 -241 -50 -214 -52 -224 -35 -242 21
-23 44 -25 67 -8 15 12 118 412 118 458 0 43 -54 65 -82 33z"/>
<path d="M455 1402 c-6 -4 -45 -46 -88 -94 -102 -116 -102 -122 -1 -237 81
-91 113 -113 142 -95 37 24 26 58 -44 138 l-66 76 66 76 c65 74 79 107 54 132
-13 13 -47 16 -63 4z"/>
<path d="M1006 1391 c-25 -27 -15 -49 55 -126 32 -36 59 -70 59 -76 0 -5 -19
-31 -43 -57 -90 -98 -100 -118 -71 -146 33 -33 59 -20 143 76 45 50 84 102 87
115 8 29 -9 53 -105 161 -69 77 -94 87 -125 53z"/>
<path d="M732 634 c-24 -17 -29 -53 -10 -72 19 -19 66 -15 78 7 14 28 13 38
-10 61 -24 24 -29 24 -58 4z"/>
</g>
</svg>
